<svg width="40" height="40" viewBox="0 0 40 40" fill="none" xmlns="http://www.w3.org/2000/svg">
<rect x="25.536" y="13.4861" width="1.71467" height="16.7338" transform="rotate(45.9772 25.536 13.4861)" fill="white"/>
<path d="M26 14H36.8C37.4628 14 38 14.5373 38 15.2V36.8C38 37.4628 37.4628 38 36.8 38H15.2C14.5373 38 14 37.4628 14 36.8V26" fill="white"/>
<path d="M26 14H36.8C37.4628 14 38 14.5373 38 15.2V36.8C38 37.4628 37.4628 38 36.8 38H15.2C14.5373 38 14 37.4628 14 36.8V26" stroke="#16161a" stroke-width="2" stroke-linecap="round" stroke-linejoin="round"/>
<path d="M26 14V3.2C26 2.53726 25.4628 2 24.8 2H3.2C2.53726 2 2 2.53726 2 3.2V24.8C2 25.4628 2.53726 26 3.2 26H14" fill="white"/>
<path d="M26 14V3.2C26 2.53726 25.4628 2 24.8 2H3.2C2.53726 2 2 2.53726 2 3.2V24.8C2 25.4628 2.53726 26 3.2 26H14" stroke="#16161a" stroke-width="2" stroke-linecap="round" stroke-linejoin="round"/>
<path d="M10 20C9.44772 20 9 19.5523 9 19V8C9 7.44772 9.44772 7 10 7H17C17.5523 7 18 7.44772 18 8V9C18 9.55228 17.5523 10 17 10H13C12.4477 10 12 10.4477 12 11V12C12 12.5523 12.4477 13 13 13H16C16.5523 13 17 13.4477 17 14V15C17 15.5523 16.5523 16 16 16H13C12.4477 16 12 16.4477 12 17V19C12 19.5523 11.5523 20 11 20H10Z" fill="#16161a"/>
<path d="M22 33C21.4477 33 21 32.5523 21 32V21C21 20.4477 21.4477 20 22 20H29C29.5523 20 30 20.4477 30 21V22C30 22.5523 29.5523 23 29 23H25C24.4477 23 24 23.4477 24 24V25C24 25.5523 24.4477 26 25 26H28C28.5523 26 29 26.4477 29 27V28C29 28.5523 28.5523 29 28 29H25C24.4477 29 24 29.4477 24 30V32C24 32.5523 23.5523 33 23 33H22Z" fill="#16161a"/>
</svg>